<svg xmlns="http://www.w3.org/2000/svg" xmlns:xlink="http://www.w3.org/1999/xlink" width="500" zoomAndPan="magnify" viewBox="0 0 375 374.999991" height="500" preserveAspectRatio="xMidYMid meet" version="1.0"><defs><clipPath id="6d6d4fb00a"><path d="M 155.632812 77.914062 L 271.117188 77.914062 L 271.117188 193.402344 L 155.632812 193.402344 Z M 155.632812 77.914062 " clip-rule="nonzero"/></clipPath><clipPath id="979188aa41"><path d="M 213.375 77.914062 C 181.484375 77.914062 155.632812 103.769531 155.632812 135.660156 C 155.632812 167.550781 181.484375 193.402344 213.375 193.402344 C 245.265625 193.402344 271.117188 167.550781 271.117188 135.660156 C 271.117188 103.769531 245.265625 77.914062 213.375 77.914062 Z M 213.375 77.914062 " clip-rule="nonzero"/></clipPath><clipPath id="1163473425"><path d="M 213.375 77.914062 C 181.484375 77.914062 155.632812 103.769531 155.632812 135.660156 C 155.632812 167.550781 181.484375 193.402344 213.375 193.402344 C 245.265625 193.402344 271.117188 167.550781 271.117188 135.660156 C 271.117188 103.769531 245.265625 77.914062 213.375 77.914062 Z M 213.375 77.914062 " clip-rule="nonzero"/></clipPath><clipPath id="6cd471fdc6"><path d="M 162.828125 179.671875 L 283.003906 179.671875 L 283.003906 299.84375 L 162.828125 299.84375 Z M 162.828125 179.671875 " clip-rule="nonzero"/></clipPath><clipPath id="a6f71505b8"><path d="M 222.914062 179.671875 C 189.730469 179.671875 162.828125 206.574219 162.828125 239.757812 C 162.828125 272.945312 189.730469 299.84375 222.914062 299.84375 C 256.101562 299.84375 283.003906 272.945312 283.003906 239.757812 C 283.003906 206.574219 256.101562 179.671875 222.914062 179.671875 Z M 222.914062 179.671875 " clip-rule="nonzero"/></clipPath><clipPath id="7d1e977496"><path d="M 222.914062 179.671875 C 189.730469 179.671875 162.828125 206.574219 162.828125 239.757812 C 162.828125 272.945312 189.730469 299.84375 222.914062 299.84375 C 256.101562 299.84375 283.003906 272.945312 283.003906 239.757812 C 283.003906 206.574219 256.101562 179.671875 222.914062 179.671875 Z M 222.914062 179.671875 " clip-rule="nonzero"/></clipPath><clipPath id="7ccfffdd68"><path d="M 77.820312 190.171875 L 187.496094 190.171875 L 187.496094 299.84375 L 77.820312 299.84375 Z M 77.820312 190.171875 " clip-rule="nonzero"/></clipPath><clipPath id="ecc549ad1a"><path d="M 132.660156 190.171875 C 102.371094 190.171875 77.820312 214.722656 77.820312 245.007812 C 77.820312 275.292969 102.371094 299.84375 132.660156 299.84375 C 162.945312 299.84375 187.496094 275.292969 187.496094 245.007812 C 187.496094 214.722656 162.945312 190.171875 132.660156 190.171875 Z M 132.660156 190.171875 " clip-rule="nonzero"/></clipPath><clipPath id="497df7f1b6"><path d="M 132.660156 190.171875 C 102.371094 190.171875 77.820312 214.722656 77.820312 245.007812 C 77.820312 275.292969 102.371094 299.84375 132.660156 299.84375 C 162.945312 299.84375 187.496094 275.292969 187.496094 245.007812 C 187.496094 214.722656 162.945312 190.171875 132.660156 190.171875 Z M 132.660156 190.171875 " clip-rule="nonzero"/></clipPath><clipPath id="6d0185519c"><path d="M 264.027344 128.183594 L 298.453125 128.183594 L 298.453125 161.890625 L 264.027344 161.890625 Z M 264.027344 128.183594 " clip-rule="nonzero"/></clipPath><clipPath id="28d945b296"><path d="M 298.453125 128.183594 C 298.453125 137.054688 294.789062 145.730469 288.386719 152 C 281.984375 158.273438 273.132812 161.863281 264.078125 161.863281 L 264.078125 128.183594 Z M 298.453125 128.183594 " clip-rule="nonzero"/></clipPath><clipPath id="b2ba1bc502"><path d="M 298.453125 128.183594 C 298.453125 137.054688 294.789062 145.730469 288.386719 152 C 281.984375 158.273438 273.132812 161.863281 264.078125 161.863281 L 264.078125 128.183594 Z M 298.453125 128.183594 " clip-rule="nonzero"/></clipPath><clipPath id="fef356b8dc"><path d="M 76.601562 145 L 129.667969 145 L 129.667969 249.984375 L 76.601562 249.984375 Z M 76.601562 145 " clip-rule="nonzero"/></clipPath><clipPath id="f9effee39f"><path d="M 77.851562 249.910156 L 24.824219 199.214844 L 76.707031 144.941406 L 129.734375 195.640625 Z M 77.851562 249.910156 " clip-rule="nonzero"/></clipPath><clipPath id="1d0ec7ef2c"><path d="M 76.628906 145.027344 L 129.65625 195.726562 L 77.851562 249.910156 Z M 76.628906 145.027344 " clip-rule="nonzero"/></clipPath><clipPath id="cbb3546954"><path d="M 77.851562 249.910156 L 24.824219 199.214844 L 76.707031 144.941406 L 129.734375 195.640625 Z M 77.851562 249.910156 " clip-rule="nonzero"/></clipPath><clipPath id="343730fcf7"><path d="M 76.628906 145.027344 L 129.65625 195.726562 L 77.851562 249.910156 Z M 76.628906 145.027344 " clip-rule="nonzero"/></clipPath><clipPath id="59d3d5e50e"><path d="M 125.378906 172.234375 L 231.804688 172.234375 L 231.804688 272 L 125.378906 272 Z M 125.378906 172.234375 " clip-rule="nonzero"/></clipPath><clipPath id="32cb3f499d"><path d="M 125.449219 209.90625 L 200.832031 172.351562 L 231.730469 234.367188 L 156.347656 271.921875 Z M 125.449219 209.90625 " clip-rule="nonzero"/></clipPath><clipPath id="f567acb56b"><path d="M 125.449219 209.90625 L 200.832031 172.351562 L 231.730469 234.367188 L 156.347656 271.921875 Z M 125.449219 209.90625 " clip-rule="nonzero"/></clipPath><clipPath id="3d50671fb3"><path d="M 132.660156 230.5625 L 216.878906 230.5625 L 216.878906 299.84375 L 132.660156 299.84375 Z M 132.660156 230.5625 " clip-rule="nonzero"/></clipPath><clipPath id="8406d2b2cd"><path d="M 72.019531 72.019531 L 303 72.019531 L 303 303 L 72.019531 303 Z M 72.019531 72.019531 " clip-rule="nonzero"/></clipPath><clipPath id="3c1e3f65a6"><path d="M 204.023438 92.667969 L 289.878906 92.667969 L 289.878906 124.382812 L 204.023438 124.382812 Z M 204.023438 92.667969 " clip-rule="nonzero"/></clipPath><clipPath id="33d20fe7f4"><path d="M 219.882812 92.667969 L 273.976562 92.667969 C 282.734375 92.667969 289.835938 99.765625 289.835938 108.523438 C 289.835938 117.285156 282.734375 124.382812 273.976562 124.382812 L 219.882812 124.382812 C 211.125 124.382812 204.023438 117.285156 204.023438 108.523438 C 204.023438 99.765625 211.125 92.667969 219.882812 92.667969 Z M 219.882812 92.667969 " clip-rule="nonzero"/></clipPath><clipPath id="5e4c14921b"><path d="M 219.882812 92.667969 L 273.976562 92.667969 C 282.734375 92.667969 289.835938 99.765625 289.835938 108.523438 C 289.835938 117.285156 282.734375 124.382812 273.976562 124.382812 L 219.882812 124.382812 C 211.125 124.382812 204.023438 117.285156 204.023438 108.523438 C 204.023438 99.765625 211.125 92.667969 219.882812 92.667969 Z M 219.882812 92.667969 " clip-rule="nonzero"/></clipPath><clipPath id="b0d3a6efc6"><path d="M 213.59375 101.34375 L 279.894531 101.34375 L 279.894531 115.707031 L 213.59375 115.707031 Z M 213.59375 101.34375 " clip-rule="nonzero"/></clipPath><clipPath id="e7345ac361"><path d="M 220.773438 101.34375 L 272.699219 101.34375 C 274.601562 101.34375 276.425781 102.101562 277.773438 103.449219 C 279.121094 104.796875 279.878906 106.621094 279.878906 108.523438 C 279.878906 110.429688 279.121094 112.253906 277.773438 113.601562 C 276.425781 114.949219 274.601562 115.707031 272.699219 115.707031 L 220.773438 115.707031 C 218.867188 115.707031 217.042969 114.949219 215.695312 113.601562 C 214.347656 112.253906 213.59375 110.429688 213.59375 108.523438 C 213.59375 106.621094 214.347656 104.796875 215.695312 103.449219 C 217.042969 102.101562 218.867188 101.34375 220.773438 101.34375 Z M 220.773438 101.34375 " clip-rule="nonzero"/></clipPath><clipPath id="cc89a5bfde"><path d="M 220.773438 101.34375 L 272.699219 101.34375 C 274.601562 101.34375 276.425781 102.101562 277.773438 103.449219 C 279.121094 104.796875 279.878906 106.621094 279.878906 108.523438 C 279.878906 110.429688 279.121094 112.253906 277.773438 113.601562 C 276.425781 114.949219 274.601562 115.707031 272.699219 115.707031 L 220.773438 115.707031 C 218.867188 115.707031 217.042969 114.949219 215.695312 113.601562 C 214.347656 112.253906 213.59375 110.429688 213.59375 108.523438 C 213.59375 106.621094 214.347656 104.796875 215.695312 103.449219 C 217.042969 102.101562 218.867188 101.34375 220.773438 101.34375 Z M 220.773438 101.34375 " clip-rule="nonzero"/></clipPath></defs><rect x="-37.5" width="450" fill="#ffffff" y="-37.499999" height="449.999989" fill-opacity="1"/><rect x="-37.5" width="450" fill="#101527" y="-37.499999" height="449.999989" fill-opacity="1"/><g clip-path="url(#6d6d4fb00a)"><g clip-path="url(#979188aa41)"><g clip-path="url(#1163473425)"><path fill="#101527" d="M 155.632812 77.914062 L 271.117188 77.914062 L 271.117188 193.402344 L 155.632812 193.402344 Z M 155.632812 77.914062 " fill-opacity="1" fill-rule="nonzero"/></g></g></g><g clip-path="url(#6cd471fdc6)"><g clip-path="url(#a6f71505b8)"><g clip-path="url(#7d1e977496)"><path fill="#101527" d="M 162.828125 179.671875 L 283.003906 179.671875 L 283.003906 299.84375 L 162.828125 299.84375 Z M 162.828125 179.671875 " fill-opacity="1" fill-rule="nonzero"/></g></g></g><g clip-path="url(#7ccfffdd68)"><g clip-path="url(#ecc549ad1a)"><g clip-path="url(#497df7f1b6)"><path fill="#101527" d="M 77.820312 190.171875 L 187.496094 190.171875 L 187.496094 299.847656 L 77.820312 299.847656 Z M 77.820312 190.171875 " fill-opacity="1" fill-rule="nonzero"/></g></g></g><g clip-path="url(#6d0185519c)"><g clip-path="url(#28d945b296)"><g clip-path="url(#b2ba1bc502)"><path fill="#101527" d="M 264.113281 128.183594 L 298.453125 128.183594 L 298.453125 161.863281 L 264.113281 161.863281 Z M 264.113281 128.183594 " fill-opacity="1" fill-rule="nonzero"/></g></g></g><g clip-path="url(#fef356b8dc)"><g clip-path="url(#f9effee39f)"><g clip-path="url(#1d0ec7ef2c)"><g clip-path="url(#cbb3546954)"><g clip-path="url(#343730fcf7)"><path fill="#101527" d="M 77.851562 249.910156 L 24.824219 199.214844 L 76.707031 144.941406 L 129.734375 195.640625 Z M 77.851562 249.910156 " fill-opacity="1" fill-rule="nonzero"/></g></g></g></g></g><g clip-path="url(#59d3d5e50e)"><g clip-path="url(#32cb3f499d)"><g clip-path="url(#f567acb56b)"><path fill="#101527" d="M 125.449219 209.90625 L 200.789062 172.375 L 231.683594 234.390625 L 156.347656 271.921875 Z M 125.449219 209.90625 " fill-opacity="1" fill-rule="nonzero"/></g></g></g><g clip-path="url(#3d50671fb3)"><path fill="#101527" d="M 132.660156 230.5625 L 216.828125 230.5625 L 216.828125 299.84375 L 132.660156 299.84375 Z M 132.660156 230.5625 " fill-opacity="1" fill-rule="nonzero"/></g><g clip-path="url(#8406d2b2cd)"><path fill="#ffffff" d="M 298.863281 124.011719 L 276.65625 124.011719 L 276.203125 121.992188 C 273.265625 108.789062 266.335938 97.0625 256.164062 88.054688 C 244.484375 77.722656 229.460938 72.027344 213.863281 72.027344 C 196.800781 72.027344 180.757812 78.679688 168.691406 90.738281 C 156.625 102.8125 149.976562 118.855469 149.976562 135.910156 C 149.976562 145.988281 152.386719 156.027344 156.941406 164.925781 C 159.839844 170.589844 163.566406 175.789062 168.035156 180.382812 L 170.757812 183.195312 L 167.113281 184.597656 C 160.898438 186.980469 154.191406 188.195312 147.210938 188.195312 C 134.328125 188.195312 122.289062 184.007812 113.300781 176.402344 L 78.941406 142.269531 C 78.207031 141.570312 77.195312 141.152344 76.128906 141.152344 C 73.867188 141.152344 72.019531 143 72.019531 145.269531 L 72.046875 240.746094 C 72.5 257.53125 79.34375 273.15625 91.3125 284.832031 C 103.304688 296.523438 119.144531 302.964844 135.90625 302.964844 L 224.265625 302.964844 C 241.328125 302.964844 257.363281 296.324219 269.425781 284.269531 C 281.480469 272.214844 288.128906 256.179688 288.128906 239.109375 C 288.128906 217.378906 277.234375 197.34375 259 185.507812 L 256.292969 183.753906 L 258.589844 181.5 C 262.941406 177.238281 266.648438 172.378906 269.628906 167.0625 L 270.21875 165.992188 L 271.433594 165.78125 C 279.699219 164.3125 287.085938 160.28125 292.796875 154.109375 C 299.355469 147.019531 302.972656 137.792969 302.972656 128.128906 C 302.972656 125.851562 301.125 124.011719 298.863281 124.011719 Z M 293.835938 135.453125 C 290.667969 147.921875 279.972656 157 267.234375 158.054688 L 264.90625 158.238281 L 263.875 160.347656 C 260.035156 168.191406 254.324219 175.105469 247.300781 180.40625 L 247.300781 180.425781 L 246.21875 181.21875 C 245.148438 181.992188 244.5 183.234375 244.5 184.550781 C 244.5 186.277344 245.59375 187.828125 247.214844 188.417969 C 267.15625 197.527344 279.910156 217.394531 279.910156 239.109375 C 279.910156 269.796875 254.945312 294.746094 224.265625 294.746094 L 135.90625 294.746094 C 105.558594 294.746094 81.117188 271.015625 80.273438 240.707031 L 80.238281 155.136719 L 107.726562 182.441406 C 118.261719 191.464844 132.273438 196.425781 147.210938 196.425781 C 159.015625 196.425781 170.300781 193.3125 179.832031 187.441406 C 181.300781 186.640625 182.132812 185.246094 182.132812 183.738281 C 182.132812 182.429688 181.519531 181.21875 180.453125 180.425781 C 166.300781 169.800781 158.195312 153.566406 158.195312 135.910156 C 158.195312 105.214844 183.167969 80.246094 213.863281 80.246094 C 241.722656 80.246094 265.453125 101.050781 269.050781 128.652344 L 269.515625 132.238281 L 294.65625 132.238281 Z M 293.835938 135.453125 " fill-opacity="1" fill-rule="nonzero"/></g><g clip-path="url(#3c1e3f65a6)"><g clip-path="url(#33d20fe7f4)"><g clip-path="url(#5e4c14921b)"><path fill="#101527" d="M 204.023438 92.667969 L 289.878906 92.667969 L 289.878906 124.382812 L 204.023438 124.382812 Z M 204.023438 92.667969 " fill-opacity="1" fill-rule="nonzero"/></g></g></g><g clip-path="url(#b0d3a6efc6)"><g clip-path="url(#e7345ac361)"><g clip-path="url(#cc89a5bfde)"><path fill="#cc3333" d="M 213.59375 101.34375 L 279.894531 101.34375 L 279.894531 115.707031 L 213.59375 115.707031 Z M 213.59375 101.34375 " fill-opacity="1" fill-rule="nonzero"/></g></g></g></svg>