<svg xmlns="http://www.w3.org/2000/svg" xmlns:xlink="http://www.w3.org/1999/xlink" width="500" zoomAndPan="magnify" viewBox="0 0 375 374.999991" height="500" preserveAspectRatio="xMidYMid meet" version="1.0"><defs><clipPath id="7dc56aba3f"><path d="M 214.335938 33.527344 L 353.742188 33.527344 L 353.742188 85.023438 L 214.335938 85.023438 Z M 214.335938 33.527344 " clip-rule="nonzero"/></clipPath><clipPath id="00f98b26e9"><path d="M 240.085938 33.527344 L 327.921875 33.527344 C 342.140625 33.527344 353.671875 45.054688 353.671875 59.273438 C 353.671875 73.496094 342.140625 85.023438 327.921875 85.023438 L 240.085938 85.023438 C 225.867188 85.023438 214.335938 73.496094 214.335938 59.273438 C 214.335938 45.054688 225.867188 33.527344 240.085938 33.527344 Z M 240.085938 33.527344 " clip-rule="nonzero"/></clipPath><clipPath id="24e0c282a7"><path d="M 0.335938 0.527344 L 139.742188 0.527344 L 139.742188 52.023438 L 0.335938 52.023438 Z M 0.335938 0.527344 " clip-rule="nonzero"/></clipPath><clipPath id="8cbb2899ea"><path d="M 26.085938 0.527344 L 113.921875 0.527344 C 128.140625 0.527344 139.671875 12.054688 139.671875 26.273438 C 139.671875 40.496094 128.140625 52.023438 113.921875 52.023438 L 26.085938 52.023438 C 11.867188 52.023438 0.335938 40.496094 0.335938 26.273438 C 0.335938 12.054688 11.867188 0.527344 26.085938 0.527344 Z M 26.085938 0.527344 " clip-rule="nonzero"/></clipPath><clipPath id="4081dfab40"><rect x="0" width="140" y="0" height="53"/></clipPath><clipPath id="82a728f598"><path d="M 229.875 47.617188 L 337.527344 47.617188 L 337.527344 70.933594 L 229.875 70.933594 Z M 229.875 47.617188 " clip-rule="nonzero"/></clipPath><clipPath id="f256f48c34"><path d="M 241.53125 47.617188 L 325.84375 47.617188 C 328.933594 47.617188 331.898438 48.84375 334.085938 51.03125 C 336.273438 53.21875 337.5 56.183594 337.5 59.273438 C 337.5 62.367188 336.273438 65.332031 334.085938 67.519531 C 331.898438 69.703125 328.933594 70.933594 325.84375 70.933594 L 241.53125 70.933594 C 238.4375 70.933594 235.472656 69.703125 233.289062 67.519531 C 231.101562 65.332031 229.875 62.367188 229.875 59.273438 C 229.875 56.183594 231.101562 53.21875 233.289062 51.03125 C 235.472656 48.84375 238.4375 47.617188 241.53125 47.617188 Z M 241.53125 47.617188 " clip-rule="nonzero"/></clipPath><clipPath id="0d0eed929f"><path d="M 0.875 0.617188 L 108.527344 0.617188 L 108.527344 23.933594 L 0.875 23.933594 Z M 0.875 0.617188 " clip-rule="nonzero"/></clipPath><clipPath id="1d97fc51aa"><path d="M 12.53125 0.617188 L 96.84375 0.617188 C 99.933594 0.617188 102.898438 1.84375 105.085938 4.03125 C 107.273438 6.21875 108.5 9.183594 108.5 12.273438 C 108.5 15.367188 107.273438 18.332031 105.085938 20.519531 C 102.898438 22.703125 99.933594 23.933594 96.84375 23.933594 L 12.53125 23.933594 C 9.4375 23.933594 6.472656 22.703125 4.289062 20.519531 C 2.101562 18.332031 0.875 15.367188 0.875 12.273438 C 0.875 9.183594 2.101562 6.21875 4.289062 4.03125 C 6.472656 1.84375 9.4375 0.617188 12.53125 0.617188 Z M 12.53125 0.617188 " clip-rule="nonzero"/></clipPath><clipPath id="25ddc55a8f"><rect x="0" width="109" y="0" height="24"/></clipPath><mask id="remove-white-cutout" maskUnits="userSpaceOnUse" x="0" y="0" width="375" height="375"><rect x="0" y="0" width="375" height="375" fill="white"/><g clip-path="url(#7dc56aba3f)"><g clip-path="url(#00f98b26e9)"><g transform="matrix(1, 0, 0, 1, 214, 33)"><g clip-path="url(#4081dfab40)"><g clip-path="url(#24e0c282a7)"><g clip-path="url(#8cbb2899ea)"><path fill="black" d="M 0.335938 0.527344 L 139.742188 0.527344 L 139.742188 52.023438 L 0.335938 52.023438 Z M 0.335938 0.527344 "/></g></g></g></g></g></g></mask></defs><path mask="url(#remove-white-cutout)" fill="#101527" d="M 368.328125 84.421875 L 332.269531 84.421875 L 331.535156 81.140625 C 326.761719 59.703125 315.515625 40.660156 299 26.035156 C 280.035156 9.257812 255.636719 0.0117188 230.3125 0.0117188 C 202.605469 0.0117188 176.558594 10.816406 156.96875 30.394531 C 137.375 50 126.582031 76.046875 126.582031 103.742188 C 126.582031 120.105469 130.496094 136.402344 137.890625 150.855469 C 142.59375 160.046875 148.648438 168.492188 155.902344 175.953125 L 160.320312 180.519531 L 154.40625 182.796875 C 144.3125 186.664062 133.425781 188.632812 122.085938 188.632812 C 101.167969 188.632812 81.621094 181.835938 67.027344 169.488281 L 11.238281 114.0625 C 10.046875 112.929688 8.402344 112.253906 6.671875 112.253906 C 3 112.253906 0 115.253906 0 118.9375 L 0.046875 273.960938 C 0.777344 301.21875 11.890625 326.589844 31.324219 345.542969 C 50.800781 364.527344 76.515625 374.988281 103.730469 374.988281 L 247.203125 374.988281 C 274.910156 374.988281 300.945312 364.207031 320.527344 344.628906 C 340.105469 325.058594 350.898438 299.023438 350.898438 271.304688 C 350.898438 236.023438 333.207031 203.488281 303.601562 184.273438 L 299.207031 181.421875 L 302.9375 177.761719 C 310 170.847656 316.019531 162.953125 320.859375 154.324219 L 321.820312 152.582031 L 323.789062 152.242188 C 337.210938 149.859375 349.207031 143.3125 358.476562 133.289062 C 369.128906 121.777344 375 106.796875 375 91.105469 C 375 87.410156 372 84.421875 368.328125 84.421875 Z M 360.167969 102.996094 C 355.019531 123.242188 337.65625 137.980469 316.96875 139.699219 L 313.191406 139.996094 L 311.519531 143.417969 C 305.28125 156.15625 296.011719 167.382812 284.605469 175.988281 L 284.605469 176.019531 L 282.851562 177.304688 C 281.113281 178.5625 280.058594 180.578125 280.058594 182.714844 C 280.058594 185.519531 281.835938 188.039062 284.464844 189 C 316.84375 203.785156 337.554688 236.046875 337.554688 271.304688 C 337.554688 321.132812 297.019531 361.644531 247.203125 361.644531 L 103.730469 361.644531 C 54.460938 361.644531 14.773438 323.113281 13.402344 273.902344 L 13.34375 134.960938 L 57.976562 179.292969 C 75.085938 193.941406 97.835938 202 122.085938 202 C 141.253906 202 159.578125 196.941406 175.058594 187.410156 C 177.441406 186.113281 178.792969 183.847656 178.792969 181.398438 C 178.792969 179.273438 177.796875 177.304688 176.066406 176.019531 C 153.085938 158.765625 139.925781 132.40625 139.925781 103.738281 C 139.925781 53.902344 180.472656 13.355469 230.3125 13.355469 C 275.550781 13.355469 314.082031 47.136719 319.917969 91.953125 L 320.675781 97.777344 L 361.496094 97.777344 Z M 360.167969 102.996094 " fill-opacity="1" fill-rule="nonzero"/><g clip-path="url(#7dc56aba3f)"><g clip-path="url(#00f98b26e9)"><g transform="matrix(1, 0, 0, 1, 214, 33)"><g clip-path="url(#4081dfab40)"><g clip-path="url(#24e0c282a7)"><g clip-path="url(#8cbb2899ea)"><path fill="none" d="M 0.335938 0.527344 L 139.742188 0.527344 L 139.742188 52.023438 L 0.335938 52.023438 Z M 0.335938 0.527344 " fill-rule="nonzero"/></g></g></g></g></g></g><g clip-path="url(#82a728f598)"><g clip-path="url(#f256f48c34)"><g transform="matrix(1, 0, 0, 1, 229, 47)"><g clip-path="url(#25ddc55a8f)"><g clip-path="url(#0d0eed929f)"><g clip-path="url(#1d97fc51aa)"><path fill="#cc3333" d="M 0.875 0.617188 L 108.527344 0.617188 L 108.527344 23.933594 L 0.875 23.933594 Z M 0.875 0.617188 " fill-opacity="1" fill-rule="nonzero"/></g></g></g></g></g></g></svg>