<svg xmlns="http://www.w3.org/2000/svg" xmlns:xlink="http://www.w3.org/1999/xlink" width="500" zoomAndPan="magnify" viewBox="0 0 375 374.999991" height="500" preserveAspectRatio="xMidYMid meet" version="1.0"><defs><clipPath id="108e9d0810"><path d="M 135.761719 9.574219 L 323.277344 9.574219 L 323.277344 197.089844 L 135.761719 197.089844 Z M 135.761719 9.574219 " clip-rule="nonzero"/></clipPath><clipPath id="f50f8a65bd"><path d="M 229.519531 9.574219 C 177.738281 9.574219 135.761719 51.550781 135.761719 103.332031 C 135.761719 155.113281 177.738281 197.089844 229.519531 197.089844 C 281.300781 197.089844 323.277344 155.113281 323.277344 103.332031 C 323.277344 51.550781 281.300781 9.574219 229.519531 9.574219 Z M 229.519531 9.574219 " clip-rule="nonzero"/></clipPath><clipPath id="33ac7d3f46"><path d="M 0.761719 0.574219 L 188.277344 0.574219 L 188.277344 188.089844 L 0.761719 188.089844 Z M 0.761719 0.574219 " clip-rule="nonzero"/></clipPath><clipPath id="3ffc39533d"><path d="M 94.519531 0.574219 C 42.738281 0.574219 0.761719 42.550781 0.761719 94.332031 C 0.761719 146.113281 42.738281 188.089844 94.519531 188.089844 C 146.300781 188.089844 188.277344 146.113281 188.277344 94.332031 C 188.277344 42.550781 146.300781 0.574219 94.519531 0.574219 Z M 94.519531 0.574219 " clip-rule="nonzero"/></clipPath><clipPath id="457caa4ca4"><rect x="0" width="189" y="0" height="189"/></clipPath><clipPath id="1bd7a0bdf0"><path d="M 147.449219 174.796875 L 342.574219 174.796875 L 342.574219 369.921875 L 147.449219 369.921875 Z M 147.449219 174.796875 " clip-rule="nonzero"/></clipPath><clipPath id="c861e7a364"><path d="M 245.011719 174.796875 C 191.128906 174.796875 147.449219 218.476562 147.449219 272.359375 C 147.449219 326.242188 191.128906 369.921875 245.011719 369.921875 C 298.894531 369.921875 342.574219 326.242188 342.574219 272.359375 C 342.574219 218.476562 298.894531 174.796875 245.011719 174.796875 Z M 245.011719 174.796875 " clip-rule="nonzero"/></clipPath><clipPath id="e9fba70193"><path d="M 0.449219 0.796875 L 195.574219 0.796875 L 195.574219 195.921875 L 0.449219 195.921875 Z M 0.449219 0.796875 " clip-rule="nonzero"/></clipPath><clipPath id="266d6a9285"><path d="M 98.011719 0.796875 C 44.128906 0.796875 0.449219 44.476562 0.449219 98.359375 C 0.449219 152.242188 44.128906 195.921875 98.011719 195.921875 C 151.894531 195.921875 195.574219 152.242188 195.574219 98.359375 C 195.574219 44.476562 151.894531 0.796875 98.011719 0.796875 Z M 98.011719 0.796875 " clip-rule="nonzero"/></clipPath><clipPath id="2261f6f779"><rect x="0" width="196" y="0" height="196"/></clipPath><clipPath id="3facaa888d"><path d="M 9.417969 191.84375 L 187.5 191.84375 L 187.5 369.921875 L 9.417969 369.921875 Z M 9.417969 191.84375 " clip-rule="nonzero"/></clipPath><clipPath id="2516fcaaa4"><path d="M 98.460938 191.84375 C 49.285156 191.84375 9.417969 231.707031 9.417969 280.882812 C 9.417969 330.058594 49.285156 369.921875 98.460938 369.921875 C 147.636719 369.921875 187.5 330.058594 187.5 280.882812 C 187.5 231.707031 147.636719 191.84375 98.460938 191.84375 Z M 98.460938 191.84375 " clip-rule="nonzero"/></clipPath><clipPath id="bd5ee2dc1b"><path d="M 0.417969 0.84375 L 178.5 0.84375 L 178.5 178.921875 L 0.417969 178.921875 Z M 0.417969 0.84375 " clip-rule="nonzero"/></clipPath><clipPath id="1861c37b8d"><path d="M 89.460938 0.84375 C 40.285156 0.84375 0.417969 40.707031 0.417969 89.882812 C 0.417969 139.058594 40.285156 178.921875 89.460938 178.921875 C 138.636719 178.921875 178.5 139.058594 178.5 89.882812 C 178.5 40.707031 138.636719 0.84375 89.460938 0.84375 Z M 89.460938 0.84375 " clip-rule="nonzero"/></clipPath><clipPath id="c11664f3c4"><rect x="0" width="179" y="0" height="179"/></clipPath><clipPath id="8f572c92ac"><path d="M 311.695312 91.195312 L 367.664062 91.195312 L 367.664062 146 L 311.695312 146 Z M 311.695312 91.195312 " clip-rule="nonzero"/></clipPath><clipPath id="357fdb50d4"><path d="M 367.664062 91.195312 C 367.664062 105.597656 361.710938 119.683594 351.316406 129.867188 C 340.921875 140.050781 326.546875 145.882812 311.847656 145.882812 L 311.847656 91.195312 Z M 367.664062 91.195312 " clip-rule="nonzero"/></clipPath><clipPath id="8d6e6dad83"><path d="M 0.761719 0.195312 L 56.664062 0.195312 L 56.664062 54.921875 L 0.761719 54.921875 Z M 0.761719 0.195312 " clip-rule="nonzero"/></clipPath><clipPath id="4ddd707a9c"><path d="M 56.664062 0.195312 C 56.664062 14.597656 50.710938 28.683594 40.316406 38.867188 C 29.921875 49.050781 15.546875 54.882812 0.847656 54.882812 L 0.847656 0.195312 Z M 56.664062 0.195312 " clip-rule="nonzero"/></clipPath><clipPath id="7601918a32"><rect x="0" width="57" y="0" height="55"/></clipPath><clipPath id="84a2d8fae4"><path d="M 7 118 L 94 118 L 94 289 L 7 289 Z M 7 118 " clip-rule="nonzero"/></clipPath><clipPath id="e6d0ebde6a"><path d="M 9.46875 288.84375 L -76.632812 206.527344 L 7.613281 118.40625 L 93.714844 200.726562 Z M 9.46875 288.84375 " clip-rule="nonzero"/></clipPath><clipPath id="f39534e003"><path d="M 7.484375 118.542969 L 93.585938 200.863281 L 9.46875 288.84375 Z M 7.484375 118.542969 " clip-rule="nonzero"/></clipPath><clipPath id="314e8d4210"><path d="M 0.441406 0.320312 L 86.601562 0.320312 L 86.601562 170.960938 L 0.441406 170.960938 Z M 0.441406 0.320312 " clip-rule="nonzero"/></clipPath><clipPath id="7101f89edd"><path d="M 2.46875 170.84375 L -83.632812 88.527344 L 0.613281 0.40625 L 86.714844 82.726562 Z M 2.46875 170.84375 " clip-rule="nonzero"/></clipPath><clipPath id="0d2b744949"><path d="M 0.484375 0.542969 L 86.585938 82.863281 L 2.46875 170.84375 Z M 0.484375 0.542969 " clip-rule="nonzero"/></clipPath><clipPath id="0b553cbf38"><rect x="0" width="87" y="0" height="171"/></clipPath><clipPath id="d0fd3e6930"><path d="M 86 162 L 260 162 L 260 325 L 86 325 Z M 86 162 " clip-rule="nonzero"/></clipPath><clipPath id="f32a1b9037"><path d="M 86.753906 223.890625 L 209.15625 162.910156 L 259.324219 263.605469 L 136.921875 324.585938 Z M 86.753906 223.890625 " clip-rule="nonzero"/></clipPath><clipPath id="226ec28453"><path d="M 0.640625 0.71875 L 173.441406 0.71875 L 173.441406 162.71875 L 0.640625 162.71875 Z M 0.640625 0.71875 " clip-rule="nonzero"/></clipPath><clipPath id="10880b8fa6"><path d="M 0.753906 61.890625 L 123.15625 0.910156 L 173.324219 101.605469 L 50.921875 162.585938 Z M 0.753906 61.890625 " clip-rule="nonzero"/></clipPath><clipPath id="e07df92df7"><rect x="0" width="174" y="0" height="163"/></clipPath><clipPath id="eff01950eb"><path d="M 98.460938 257.425781 L 235.210938 257.425781 L 235.210938 369.921875 L 98.460938 369.921875 Z M 98.460938 257.425781 " clip-rule="nonzero"/></clipPath><clipPath id="1b6c01ca61"><path d="M 0.460938 0.425781 L 137.210938 0.425781 L 137.210938 112.921875 L 0.460938 112.921875 Z M 0.460938 0.425781 " clip-rule="nonzero"/></clipPath><clipPath id="fab01269ef"><rect x="0" width="138" y="0" height="113"/></clipPath><clipPath id="3e62d79240"><path d="M 214.335938 33.527344 L 353.742188 33.527344 L 353.742188 85.023438 L 214.335938 85.023438 Z M 214.335938 33.527344 " clip-rule="nonzero"/></clipPath><clipPath id="fedc6e9748"><path d="M 240.085938 33.527344 L 327.921875 33.527344 C 342.140625 33.527344 353.671875 45.054688 353.671875 59.273438 C 353.671875 73.496094 342.140625 85.023438 327.921875 85.023438 L 240.085938 85.023438 C 225.867188 85.023438 214.335938 73.496094 214.335938 59.273438 C 214.335938 45.054688 225.867188 33.527344 240.085938 33.527344 Z M 240.085938 33.527344 " clip-rule="nonzero"/></clipPath><clipPath id="4f96b1196e"><path d="M 0.335938 0.527344 L 139.742188 0.527344 L 139.742188 52.023438 L 0.335938 52.023438 Z M 0.335938 0.527344 " clip-rule="nonzero"/></clipPath><clipPath id="b6519d8622"><path d="M 26.085938 0.527344 L 113.921875 0.527344 C 128.140625 0.527344 139.671875 12.054688 139.671875 26.273438 C 139.671875 40.496094 128.140625 52.023438 113.921875 52.023438 L 26.085938 52.023438 C 11.867188 52.023438 0.335938 40.496094 0.335938 26.273438 C 0.335938 12.054688 11.867188 0.527344 26.085938 0.527344 Z M 26.085938 0.527344 " clip-rule="nonzero"/></clipPath><clipPath id="73d443560f"><rect x="0" width="140" y="0" height="53"/></clipPath><clipPath id="c0322fa045"><path d="M 229.875 47.617188 L 337.527344 47.617188 L 337.527344 70.933594 L 229.875 70.933594 Z M 229.875 47.617188 " clip-rule="nonzero"/></clipPath><clipPath id="cdc471214e"><path d="M 241.53125 47.617188 L 325.84375 47.617188 C 328.933594 47.617188 331.898438 48.84375 334.085938 51.03125 C 336.273438 53.21875 337.5 56.183594 337.5 59.273438 C 337.5 62.367188 336.273438 65.332031 334.085938 67.519531 C 331.898438 69.703125 328.933594 70.933594 325.84375 70.933594 L 241.53125 70.933594 C 238.4375 70.933594 235.472656 69.703125 233.289062 67.519531 C 231.101562 65.332031 229.875 62.367188 229.875 59.273438 C 229.875 56.183594 231.101562 53.21875 233.289062 51.03125 C 235.472656 48.84375 238.4375 47.617188 241.53125 47.617188 Z M 241.53125 47.617188 " clip-rule="nonzero"/></clipPath><clipPath id="e130866f11"><path d="M 0.875 0.617188 L 108.527344 0.617188 L 108.527344 23.933594 L 0.875 23.933594 Z M 0.875 0.617188 " clip-rule="nonzero"/></clipPath><clipPath id="5de1480893"><path d="M 12.53125 0.617188 L 96.84375 0.617188 C 99.933594 0.617188 102.898438 1.84375 105.085938 4.03125 C 107.273438 6.21875 108.5 9.183594 108.5 12.273438 C 108.5 15.367188 107.273438 18.332031 105.085938 20.519531 C 102.898438 22.703125 99.933594 23.933594 96.84375 23.933594 L 12.53125 23.933594 C 9.4375 23.933594 6.472656 22.703125 4.289062 20.519531 C 2.101562 18.332031 0.875 15.367188 0.875 12.273438 C 0.875 9.183594 2.101562 6.21875 4.289062 4.03125 C 6.472656 1.84375 9.4375 0.617188 12.53125 0.617188 Z M 12.53125 0.617188 " clip-rule="nonzero"/></clipPath><clipPath id="48351e7bc4"><rect x="0" width="109" y="0" height="24"/></clipPath></defs><g clip-path="url(#108e9d0810)"><g clip-path="url(#f50f8a65bd)"><g transform="matrix(1, 0, 0, 1, 135, 9)"><g clip-path="url(#457caa4ca4)"><g clip-path="url(#33ac7d3f46)"><g clip-path="url(#3ffc39533d)"><path fill="#101527" d="M 0.761719 0.574219 L 188.277344 0.574219 L 188.277344 188.089844 L 0.761719 188.089844 Z M 0.761719 0.574219 " fill-opacity="1" fill-rule="nonzero"/></g></g></g></g></g></g><g clip-path="url(#1bd7a0bdf0)"><g clip-path="url(#c861e7a364)"><g transform="matrix(1, 0, 0, 1, 147, 174)"><g clip-path="url(#2261f6f779)"><g clip-path="url(#e9fba70193)"><g clip-path="url(#266d6a9285)"><path fill="#101527" d="M 0.449219 0.796875 L 195.574219 0.796875 L 195.574219 195.921875 L 0.449219 195.921875 Z M 0.449219 0.796875 " fill-opacity="1" fill-rule="nonzero"/></g></g></g></g></g></g><g clip-path="url(#3facaa888d)"><g clip-path="url(#2516fcaaa4)"><g transform="matrix(1, 0, 0, 1, 9, 191)"><g clip-path="url(#c11664f3c4)"><g clip-path="url(#bd5ee2dc1b)"><g clip-path="url(#1861c37b8d)"><path fill="#101527" d="M 0.417969 0.84375 L 178.5 0.84375 L 178.5 178.925781 L 0.417969 178.925781 Z M 0.417969 0.84375 " fill-opacity="1" fill-rule="nonzero"/></g></g></g></g></g></g><g clip-path="url(#8f572c92ac)"><g clip-path="url(#357fdb50d4)"><g transform="matrix(1, 0, 0, 1, 311, 91)"><g clip-path="url(#7601918a32)"><g clip-path="url(#8d6e6dad83)"><g clip-path="url(#4ddd707a9c)"><path fill="#101527" d="M 56.664062 54.882812 L 0.90625 54.882812 L 0.90625 0.195312 L 56.664062 0.195312 Z M 56.664062 54.882812 " fill-opacity="1" fill-rule="nonzero"/></g></g></g></g></g></g><g clip-path="url(#84a2d8fae4)"><g clip-path="url(#e6d0ebde6a)"><g clip-path="url(#f39534e003)"><g transform="matrix(1, 0, 0, 1, 7, 118)"><g clip-path="url(#0b553cbf38)"><g clip-path="url(#314e8d4210)"><g clip-path="url(#7101f89edd)"><g clip-path="url(#0d2b744949)"><path fill="#101527" d="M 2.46875 170.84375 L -83.632812 88.527344 L 0.613281 0.40625 L 86.714844 82.726562 Z M 2.46875 170.84375 " fill-opacity="1" fill-rule="nonzero"/></g></g></g></g></g></g></g></g><g clip-path="url(#d0fd3e6930)"><g clip-path="url(#f32a1b9037)"><g transform="matrix(1, 0, 0, 1, 86, 162)"><g clip-path="url(#e07df92df7)"><g clip-path="url(#226ec28453)"><g clip-path="url(#10880b8fa6)"><path fill="#101527" d="M 0.753906 61.890625 L 123.085938 0.945312 L 173.25 101.640625 L 50.921875 162.585938 Z M 0.753906 61.890625 " fill-opacity="1" fill-rule="nonzero"/></g></g></g></g></g></g><g clip-path="url(#eff01950eb)"><g transform="matrix(1, 0, 0, 1, 98, 257)"><g clip-path="url(#fab01269ef)"><g clip-path="url(#1b6c01ca61)"><path fill="#101527" d="M 0.460938 0.425781 L 137.128906 0.425781 L 137.128906 112.921875 L 0.460938 112.921875 Z M 0.460938 0.425781 " fill-opacity="1" fill-rule="nonzero"/></g></g></g></g><path fill="#ffffff" d="M 368.328125 84.421875 L 332.269531 84.421875 L 331.535156 81.140625 C 326.761719 59.703125 315.515625 40.660156 299 26.035156 C 280.035156 9.257812 255.636719 0.0117188 230.3125 0.0117188 C 202.605469 0.0117188 176.558594 10.816406 156.96875 30.394531 C 137.375 50 126.582031 76.046875 126.582031 103.742188 C 126.582031 120.105469 130.496094 136.402344 137.890625 150.855469 C 142.59375 160.046875 148.648438 168.492188 155.902344 175.953125 L 160.320312 180.519531 L 154.40625 182.796875 C 144.3125 186.664062 133.425781 188.632812 122.085938 188.632812 C 101.167969 188.632812 81.621094 181.835938 67.027344 169.488281 L 11.238281 114.0625 C 10.046875 112.929688 8.402344 112.253906 6.671875 112.253906 C 3 112.253906 0 115.253906 0 118.9375 L 0.046875 273.960938 C 0.777344 301.21875 11.890625 326.589844 31.324219 345.542969 C 50.800781 364.527344 76.515625 374.988281 103.730469 374.988281 L 247.203125 374.988281 C 274.910156 374.988281 300.945312 364.207031 320.527344 344.628906 C 340.105469 325.058594 350.898438 299.023438 350.898438 271.304688 C 350.898438 236.023438 333.207031 203.488281 303.601562 184.273438 L 299.207031 181.421875 L 302.9375 177.761719 C 310 170.847656 316.019531 162.953125 320.859375 154.324219 L 321.820312 152.582031 L 323.789062 152.242188 C 337.210938 149.859375 349.207031 143.3125 358.476562 133.289062 C 369.128906 121.777344 375 106.796875 375 91.105469 C 375 87.410156 372 84.421875 368.328125 84.421875 Z M 360.167969 102.996094 C 355.019531 123.242188 337.65625 137.980469 316.96875 139.699219 L 313.191406 139.996094 L 311.519531 143.417969 C 305.28125 156.15625 296.011719 167.382812 284.605469 175.988281 L 284.605469 176.019531 L 282.851562 177.304688 C 281.113281 178.5625 280.058594 180.578125 280.058594 182.714844 C 280.058594 185.519531 281.835938 188.039062 284.464844 189 C 316.84375 203.785156 337.554688 236.046875 337.554688 271.304688 C 337.554688 321.132812 297.019531 361.644531 247.203125 361.644531 L 103.730469 361.644531 C 54.460938 361.644531 14.773438 323.113281 13.402344 273.902344 L 13.34375 134.960938 L 57.976562 179.292969 C 75.085938 193.941406 97.835938 202 122.085938 202 C 141.253906 202 159.578125 196.941406 175.058594 187.410156 C 177.441406 186.113281 178.792969 183.847656 178.792969 181.398438 C 178.792969 179.273438 177.796875 177.304688 176.066406 176.019531 C 153.085938 158.765625 139.925781 132.40625 139.925781 103.738281 C 139.925781 53.902344 180.472656 13.355469 230.3125 13.355469 C 275.550781 13.355469 314.082031 47.136719 319.917969 91.953125 L 320.675781 97.777344 L 361.496094 97.777344 Z M 360.167969 102.996094 " fill-opacity="1" fill-rule="nonzero"/><g clip-path="url(#3e62d79240)"><g clip-path="url(#fedc6e9748)"><g transform="matrix(1, 0, 0, 1, 214, 33)"><g clip-path="url(#73d443560f)"><g clip-path="url(#4f96b1196e)"><g clip-path="url(#b6519d8622)"><path fill="#101527" d="M 0.335938 0.527344 L 139.742188 0.527344 L 139.742188 52.023438 L 0.335938 52.023438 Z M 0.335938 0.527344 " fill-opacity="1" fill-rule="nonzero"/></g></g></g></g></g></g><g clip-path="url(#c0322fa045)"><g clip-path="url(#cdc471214e)"><g transform="matrix(1, 0, 0, 1, 229, 47)"><g clip-path="url(#48351e7bc4)"><g clip-path="url(#e130866f11)"><g clip-path="url(#5de1480893)"><path fill="#cc3333" d="M 0.875 0.617188 L 108.527344 0.617188 L 108.527344 23.933594 L 0.875 23.933594 Z M 0.875 0.617188 " fill-opacity="1" fill-rule="nonzero"/></g></g></g></g></g></g></svg>